<svg id="visual" viewBox="0 0 2600 600" width="2600" height="600" xmlns="http://www.w3.org/2000/svg" xmlns:xlink="http://www.w3.org/1999/xlink" version="1.1"><rect x="0" y="0" width="2600" height="600" fill="#fdfdfd"></rect><path d="M0 214L61.8 210.8C123.7 207.7 247.3 201.3 371.2 190.8C495 180.3 619 165.7 742.8 169.7C866.7 173.7 990.3 196.3 1114.2 197.7C1238 199 1362 179 1485.8 174.2C1609.7 169.3 1733.3 179.7 1857.2 190C1981 200.3 2105 210.7 2228.8 218.7C2352.7 226.7 2476.3 232.3 2538.2 235.2L2600 238L2600 0L2538.2 0C2476.3 0 2352.7 0 2228.8 0C2105 0 1981 0 1857.2 0C1733.3 0 1609.7 0 1485.8 0C1362 0 1238 0 1114.2 0C990.3 0 866.7 0 742.8 0C619 0 495 0 371.2 0C247.3 0 123.7 0 61.8 0L0 0Z" fill="#dd4040"></path><path d="M0 141L61.8 139C123.7 137 247.3 133 371.2 135.5C495 138 619 147 742.8 155.3C866.7 163.7 990.3 171.3 1114.2 178.2C1238 185 1362 191 1485.8 182.8C1609.7 174.7 1733.3 152.3 1857.2 148C1981 143.7 2105 157.3 2228.8 161.7C2352.7 166 2476.3 161 2538.2 158.5L2600 156L2600 0L2538.2 0C2476.3 0 2352.7 0 2228.8 0C2105 0 1981 0 1857.2 0C1733.3 0 1609.7 0 1485.8 0C1362 0 1238 0 1114.2 0C990.3 0 866.7 0 742.8 0C619 0 495 0 371.2 0C247.3 0 123.7 0 61.8 0L0 0Z" fill="#d43837"></path><path d="M0 156L61.8 153.3C123.7 150.7 247.3 145.3 371.2 135.2C495 125 619 110 742.8 113.5C866.7 117 990.3 139 1114.2 138.2C1238 137.3 1362 113.7 1485.8 108.8C1609.7 104 1733.3 118 1857.2 122.7C1981 127.3 2105 122.7 2228.8 127.2C2352.7 131.7 2476.3 145.3 2538.2 152.2L2600 159L2600 0L2538.2 0C2476.3 0 2352.7 0 2228.8 0C2105 0 1981 0 1857.2 0C1733.3 0 1609.7 0 1485.8 0C1362 0 1238 0 1114.2 0C990.3 0 866.7 0 742.8 0C619 0 495 0 371.2 0C247.3 0 123.7 0 61.8 0L0 0Z" fill="#cb2f2e"></path><path d="M0 71L61.8 69C123.7 67 247.3 63 371.2 63.2C495 63.3 619 67.7 742.8 69C866.7 70.3 990.3 68.7 1114.2 67.7C1238 66.7 1362 66.3 1485.8 74.2C1609.7 82 1733.3 98 1857.2 104C1981 110 2105 106 2228.8 105.7C2352.7 105.3 2476.3 108.7 2538.2 110.3L2600 112L2600 0L2538.2 0C2476.3 0 2352.7 0 2228.8 0C2105 0 1981 0 1857.2 0C1733.3 0 1609.7 0 1485.8 0C1362 0 1238 0 1114.2 0C990.3 0 866.7 0 742.8 0C619 0 495 0 371.2 0C247.3 0 123.7 0 61.8 0L0 0Z" fill="#c22626"></path><path d="M0 50L61.8 45.7C123.7 41.3 247.3 32.7 371.2 31.2C495 29.7 619 35.3 742.8 38.7C866.7 42 990.3 43 1114.2 41.3C1238 39.7 1362 35.3 1485.8 33.5C1609.7 31.7 1733.3 32.3 1857.2 32.5C1981 32.7 2105 32.3 2228.8 39.2C2352.7 46 2476.3 60 2538.2 67L2600 74L2600 0L2538.2 0C2476.3 0 2352.7 0 2228.8 0C2105 0 1981 0 1857.2 0C1733.3 0 1609.7 0 1485.8 0C1362 0 1238 0 1114.2 0C990.3 0 866.7 0 742.8 0C619 0 495 0 371.2 0C247.3 0 123.7 0 61.8 0L0 0Z" fill="#b81d1d"></path></svg>