<svg id="visual" viewBox="0 0 2600 600" width="2600" height="600" xmlns="http://www.w3.org/2000/svg" xmlns:xlink="http://www.w3.org/1999/xlink" version="1.1"><rect x="0" y="0" width="2600" height="600" fill="#fff"></rect><path d="M0 156L61.8 147.2C123.7 138.3 247.3 120.7 371.2 131.5C495 142.3 619 181.7 742.8 184.7C866.7 187.7 990.3 154.3 1114.2 147.8C1238 141.3 1362 161.7 1485.8 171.3C1609.7 181 1733.3 180 1857.2 177.3C1981 174.7 2105 170.3 2228.8 176.8C2352.7 183.3 2476.3 200.7 2538.2 209.3L2600 218L2600 0L2538.2 0C2476.3 0 2352.7 0 2228.8 0C2105 0 1981 0 1857.2 0C1733.3 0 1609.7 0 1485.8 0C1362 0 1238 0 1114.2 0C990.3 0 866.7 0 742.8 0C619 0 495 0 371.2 0C247.3 0 123.7 0 61.8 0L0 0Z" fill="#fafafa" stroke-linecap="round" stroke-linejoin="miter"></path></svg>