<svg id="visual" viewBox="0 0 2600 600" width="2600" height="600" xmlns="http://www.w3.org/2000/svg" xmlns:xlink="http://www.w3.org/1999/xlink" version="1.1"><rect x="0" y="0" width="2600" height="600" fill="#fff"></rect><path d="M0 414L61.8 419.5C123.7 425 247.3 436 371.2 440.2C495 444.3 619 441.7 742.8 434.8C866.7 428 990.3 417 1114.2 402.2C1238 387.3 1362 368.7 1485.8 375.7C1609.7 382.7 1733.3 415.3 1857.2 421.3C1981 427.3 2105 406.7 2228.8 393.5C2352.7 380.3 2476.3 374.7 2538.2 371.8L2600 369L2600 601L2538.2 601C2476.3 601 2352.7 601 2228.8 601C2105 601 1981 601 1857.2 601C1733.3 601 1609.7 601 1485.8 601C1362 601 1238 601 1114.2 601C990.3 601 866.7 601 742.8 601C619 601 495 601 371.2 601C247.3 601 123.7 601 61.8 601L0 601Z" fill="#ce3f3f"></path><path d="M0 473L61.8 473.7C123.7 474.3 247.3 475.7 371.2 466.2C495 456.7 619 436.3 742.8 436.2C866.7 436 990.3 456 1114.2 454C1238 452 1362 428 1485.8 427.8C1609.7 427.7 1733.3 451.3 1857.2 455.8C1981 460.3 2105 445.7 2228.8 445.2C2352.7 444.7 2476.3 458.3 2538.2 465.2L2600 472L2600 601L2538.2 601C2476.3 601 2352.7 601 2228.8 601C2105 601 1981 601 1857.2 601C1733.3 601 1609.7 601 1485.8 601C1362 601 1238 601 1114.2 601C990.3 601 866.7 601 742.8 601C619 601 495 601 371.2 601C247.3 601 123.7 601 61.8 601L0 601Z" fill="#c93737"></path><path d="M0 439L61.8 447.5C123.7 456 247.3 473 371.2 483C495 493 619 496 742.8 491C866.7 486 990.3 473 1114.2 471.5C1238 470 1362 480 1485.8 478.7C1609.7 477.3 1733.3 464.7 1857.2 467C1981 469.3 2105 486.7 2228.8 496.2C2352.7 505.7 2476.3 507.3 2538.2 508.2L2600 509L2600 601L2538.2 601C2476.3 601 2352.7 601 2228.8 601C2105 601 1981 601 1857.2 601C1733.3 601 1609.7 601 1485.8 601C1362 601 1238 601 1114.2 601C990.3 601 866.7 601 742.8 601C619 601 495 601 371.2 601C247.3 601 123.7 601 61.8 601L0 601Z" fill="#c32f2e"></path><path d="M0 488L61.8 495.2C123.7 502.3 247.3 516.7 371.2 524.3C495 532 619 533 742.8 526C866.7 519 990.3 504 1114.2 504.2C1238 504.3 1362 519.7 1485.8 522.2C1609.7 524.7 1733.3 514.3 1857.2 514.7C1981 515 2105 526 2228.8 528.3C2352.7 530.7 2476.3 524.3 2538.2 521.2L2600 518L2600 601L2538.2 601C2476.3 601 2352.7 601 2228.8 601C2105 601 1981 601 1857.2 601C1733.3 601 1609.7 601 1485.8 601C1362 601 1238 601 1114.2 601C990.3 601 866.7 601 742.8 601C619 601 495 601 371.2 601C247.3 601 123.7 601 61.8 601L0 601Z" fill="#be2626"></path><path d="M0 542L61.8 543C123.7 544 247.3 546 371.2 551.2C495 556.3 619 564.7 742.8 566.2C866.7 567.7 990.3 562.3 1114.2 555.2C1238 548 1362 539 1485.8 538C1609.7 537 1733.3 544 1857.2 545C1981 546 2105 541 2228.8 541.3C2352.7 541.7 2476.3 547.3 2538.2 550.2L2600 553L2600 601L2538.2 601C2476.3 601 2352.7 601 2228.8 601C2105 601 1981 601 1857.2 601C1733.3 601 1609.7 601 1485.8 601C1362 601 1238 601 1114.2 601C990.3 601 866.7 601 742.8 601C619 601 495 601 371.2 601C247.3 601 123.7 601 61.8 601L0 601Z" fill="#b81d1d"></path></svg>