<svg id="visual" viewBox="0 0 2600 600" width="2600" height="600" xmlns="http://www.w3.org/2000/svg" xmlns:xlink="http://www.w3.org/1999/xlink" version="1.1"><rect x="0" y="0" width="2600" height="600" fill="#fafafa"></rect><path d="M0 389L61.8 392.5C123.7 396 247.3 403 371.2 408.7C495 414.3 619 418.7 742.8 415.3C866.7 412 990.3 401 1114.2 389.2C1238 377.3 1362 364.7 1485.8 374.2C1609.7 383.7 1733.3 415.3 1857.2 423.8C1981 432.3 2105 417.7 2228.8 414C2352.7 410.3 2476.3 417.7 2538.2 421.3L2600 425L2600 601L2538.2 601C2476.3 601 2352.7 601 2228.8 601C2105 601 1981 601 1857.2 601C1733.3 601 1609.7 601 1485.8 601C1362 601 1238 601 1114.2 601C990.3 601 866.7 601 742.8 601C619 601 495 601 371.2 601C247.3 601 123.7 601 61.8 601L0 601Z" fill="#dd3f3f"></path><path d="M0 393L61.8 406.3C123.7 419.7 247.3 446.3 371.2 459C495 471.7 619 470.3 742.8 460.8C866.7 451.3 990.3 433.7 1114.2 424.2C1238 414.7 1362 413.3 1485.8 417.2C1609.7 421 1733.3 430 1857.2 433.3C1981 436.7 2105 434.3 2228.8 439C2352.7 443.7 2476.3 455.3 2538.2 461.2L2600 467L2600 601L2538.2 601C2476.3 601 2352.7 601 2228.8 601C2105 601 1981 601 1857.2 601C1733.3 601 1609.7 601 1485.8 601C1362 601 1238 601 1114.2 601C990.3 601 866.7 601 742.8 601C619 601 495 601 371.2 601C247.3 601 123.7 601 61.8 601L0 601Z" fill="#d43736"></path><path d="M0 496L61.8 487.5C123.7 479 247.3 462 371.2 455.8C495 449.7 619 454.3 742.8 454.3C866.7 454.3 990.3 449.7 1114.2 452.3C1238 455 1362 465 1485.8 468.2C1609.7 471.3 1733.3 467.7 1857.2 471C1981 474.3 2105 484.7 2228.8 483.7C2352.7 482.7 2476.3 470.3 2538.2 464.2L2600 458L2600 601L2538.2 601C2476.3 601 2352.7 601 2228.8 601C2105 601 1981 601 1857.2 601C1733.3 601 1609.7 601 1485.8 601C1362 601 1238 601 1114.2 601C990.3 601 866.7 601 742.8 601C619 601 495 601 371.2 601C247.3 601 123.7 601 61.8 601L0 601Z" fill="#cb2f2e"></path><path d="M0 493L61.8 491.3C123.7 489.7 247.3 486.3 371.2 490.5C495 494.7 619 506.3 742.8 509.5C866.7 512.7 990.3 507.3 1114.2 508C1238 508.7 1362 515.3 1485.8 517.7C1609.7 520 1733.3 518 1857.2 513.3C1981 508.7 2105 501.3 2228.8 505C2352.7 508.7 2476.3 523.3 2538.2 530.7L2600 538L2600 601L2538.2 601C2476.3 601 2352.7 601 2228.8 601C2105 601 1981 601 1857.2 601C1733.3 601 1609.7 601 1485.8 601C1362 601 1238 601 1114.2 601C990.3 601 866.7 601 742.8 601C619 601 495 601 371.2 601C247.3 601 123.7 601 61.8 601L0 601Z" fill="#c22626"></path><path d="M0 533L61.8 534C123.7 535 247.3 537 371.2 537.5C495 538 619 537 742.8 535.2C866.7 533.3 990.3 530.7 1114.2 533.2C1238 535.7 1362 543.3 1485.8 543C1609.7 542.7 1733.3 534.3 1857.2 537.7C1981 541 2105 556 2228.8 557.3C2352.7 558.7 2476.3 546.3 2538.2 540.2L2600 534L2600 601L2538.2 601C2476.3 601 2352.7 601 2228.8 601C2105 601 1981 601 1857.2 601C1733.3 601 1609.7 601 1485.8 601C1362 601 1238 601 1114.2 601C990.3 601 866.7 601 742.8 601C619 601 495 601 371.2 601C247.3 601 123.7 601 61.8 601L0 601Z" fill="#b81d1d"></path></svg>